<?xml version="1.0" standalone="no"?>
<!DOCTYPE svg PUBLIC "-//W3C//DTD SVG 20010904//EN"
 "http://www.w3.org/TR/2001/REC-SVG-20010904/DTD/svg10.dtd">
<svg version="1.0" xmlns="http://www.w3.org/2000/svg"
 width="477.000000pt" height="477.000000pt" viewBox="0 0 477.000000 477.000000"
 preserveAspectRatio="xMidYMid meet">
<metadata>
Created by potrace 1.11, written by Peter Selinger 2001-2013
</metadata>
<g transform="translate(0.000000,477.000000) scale(0.100000,-0.100000)"
fill="#000000" stroke="none">
<path d="M2235 4622 c-176 -81 -326 -151 -333 -155 -30 -20 -45 -90 -106 -519
-36 -250 -69 -466 -75 -479 -8 -22 -92 -59 -662 -290 -512 -207 -659 -271
-684 -295 -22 -22 -35 -48 -44 -90 -7 -32 -45 -162 -83 -289 -48 -161 -67
-239 -63 -261 4 -22 21 -45 58 -75 28 -24 89 -79 134 -121 63 -60 89 -78 111
-78 30 0 209 60 592 200 324 119 480 170 480 159 0 -5 -75 -524 -166 -1151
l-166 -1142 22 -18 c22 -17 58 -18 692 -16 l670 3 18 22 c24 30 20 -35 89
1468 52 1121 62 1281 76 1291 9 7 323 123 698 259 1022 370 1029 373 1054 400
12 14 24 44 27 67 10 74 27 538 22 556 -4 10 -71 80 -151 155 -132 125 -148
137 -182 137 -23 0 -299 -96 -751 -261 -392 -143 -715 -259 -718 -257 -2 2 1
92 7 199 16 301 15 398 -3 439 -21 47 -139 228 -171 263 -14 15 -36 27 -49 26
-13 0 -167 -66 -343 -147z"/>
</g>
</svg>
